<svg width="24" height="24" viewBox="0 0 24 24" fill="none" xmlns="http://www.w3.org/2000/svg">
<path d="M17 1.01001C17.55 1.01001 18 1.46001 18 2.01001V22.01C18 22.56 17.55 23.01 17 23.01H7C6.45 23.01 6 22.56 6 22.01V2.01001C6 1.46001 6.45 1.01001 7 1.01001H17ZM8 19.01H16V4.01001H8V19.01Z" fill="currentColor"/>
<path d="M15 5.51001H9C8.45 5.51001 8 5.96001 8 6.51001V16.51C8 17.06 8.45 17.51 9 17.51H15C15.55 17.51 16 17.06 16 16.51V6.51001C16 5.96001 15.55 5.51001 15 5.51001ZM14 15.51H10V7.51001H14V15.51Z" fill="currentColor"/>
</svg>